<svg version="1.1" xmlns="http://www.w3.org/2000/svg" viewBox="0 0 926.1620178222656 438.10862731933594" width="1852.3240356445312" height="876.2172546386719">
  <!-- svg-source:excalidraw -->
  
  <defs>
    <style>
      @font-face {
        font-family: "Virgil";
        src: url("https://excalidraw.com/FG_Virgil.woff2");
      }
      @font-face {
        font-family: "Cascadia";
        src: url("https://excalidraw.com/Cascadia.woff2");
      }
    </style>
  </defs>
  <rect x="0" y="0" width="926.1620178222656" height="438.10862731933594" fill="#ffffff"></rect><g transform="translate(205.66891479492188 182.27513122558594) rotate(0 76.69635009765625 78.08999633789062)"><path d="M77 0 C106.2844792105847 30.283964982535693, 135.5689584211694 60.567929965071386, 153.3927001953125 79 M77 0 C106.24609038940088 30.244265942368656, 135.49218077880175 60.48853188473731, 153.3927001953125 79 M153.3927001953125 79 C127.94816648336453 104.706761516558, 102.50363277141656 130.413523033116, 77 156.17999267578125 M153.3927001953125 79 C137.7454092830003 94.80854970331545, 122.09811837068811 110.6170994066309, 77 156.17999267578125 M77 156.17999267578125 C59.978054106514904 139.11825683959, 42.9561082130298 122.05652100339879, 0 79 M77 156.17999267578125 C54.527634407300496 133.65509641796274, 32.055268814601 111.13020016014421, 0 79 M0 79 C24.94481596024707 53.407266742084175, 49.88963192049414 27.81453348416835, 77 0 M0 79 C24.214204378705475 54.15685524782165, 48.42840875741095 29.313710495643313, 77 0" stroke="#000000" stroke-width="1" fill="none"></path></g><g transform="translate(435.6901550292969 52.87007141113281) rotate(0 52.25604248046875 54.84541320800781)"><path d="M52.25604248046875 0 C60.737790728152945 -0.7848836984864368, 71.37434815934485 2.9493968993881365, 79.04051063105041 7.752391298821578 C86.70667310275597 12.55538569825502, 94.01607035145423 20.56978273812863, 98.25301731070215 28.817966396600653 C102.48996426995006 37.066150055072676, 104.85224463100613 47.879879488829886, 104.46219238653792 57.24149324965372 C104.07214014206971 66.60310701047756, 100.81948763433773 77.15913062593, 95.9127038438929 84.98764896154366 C91.00592005344807 92.8161672971573, 83.05785860879806 100.13030024310434, 75.02148964386895 104.21260326333567 C66.98512067893984 108.29490628356699, 56.58856499021278 110.29944527209517, 47.69449005431828 109.48146708293157 C38.80041511842378 108.66348889376798, 28.89446849963149 104.79175132723229, 21.657040028501925 99.3047341283541 C14.41961155737236 93.8177169294759, 7.804682279042892 85.16424190846787, 4.269919227540889 76.5593638896624 C0.7351561760388861 67.95448587085691, -0.7187171503890977 56.965608304113736, 0.4484617194899059 47.67546601552125 C1.6156405893689094 38.38532372692877, 5.733832787608045 28.167596153644258, 11.27299244681491 20.8185101581075 C16.812152106021777 13.469424162570743, 26.852911335788793 7.050701735318631, 33.6834196747311 3.5809500423007137 C40.51392801367341 0.11119834928279682, 49.16060534617913 0.41400696302342627, 52.25604248046874 0 C55.351479614758354 -0.41400696302342627, 52.25604248046875 0.18281804402669266, 52.25604248046875 1.096908264160156 M52.25604248046875 0 C60.737790728152945 -0.7848836984864368, 71.37434815934485 2.9493968993881365, 79.04051063105041 7.752391298821578 C86.70667310275597 12.55538569825502, 94.01607035145423 20.56978273812863, 98.25301731070215 28.817966396600653 C102.48996426995006 37.066150055072676, 104.85224463100613 47.879879488829886, 104.46219238653792 57.24149324965372 C104.07214014206971 66.60310701047756, 100.81948763433773 77.15913062593, 95.9127038438929 84.98764896154366 C91.00592005344807 92.8161672971573, 83.05785860879806 100.13030024310434, 75.02148964386895 104.21260326333567 C66.98512067893984 108.29490628356699, 56.58856499021278 110.29944527209517, 47.69449005431828 109.48146708293157 C38.80041511842378 108.66348889376798, 28.89446849963149 104.79175132723229, 21.657040028501925 99.3047341283541 C14.41961155737236 93.8177169294759, 7.804682279042892 85.16424190846787, 4.269919227540889 76.5593638896624 C0.7351561760388861 67.95448587085691, -0.7187171503890977 56.965608304113736, 0.4484617194899059 47.67546601552125 C1.6156405893689094 38.38532372692877, 5.733832787608045 28.167596153644258, 11.27299244681491 20.8185101581075 C16.812152106021777 13.469424162570743, 26.852911335788793 7.050701735318631, 33.6834196747311 3.5809500423007137 C40.51392801367341 0.11119834928279682, 49.16060534617913 0.41400696302342627, 52.25604248046874 0 C55.351479614758354 -0.41400696302342627, 52.25604248046875 0.18281804402669266, 52.25604248046875 1.096908264160156" stroke="#000000" stroke-width="1" fill="none"></path></g><g transform="translate(713.3412170410156 48.519805908203125) rotate(0 52.25604248046875 54.84541320800781)"><path d="M52.25604248046875 0 C60.737790728152945 -0.7848836984864368, 71.37434815934485 2.9493968993881365, 79.04051063105041 7.752391298821578 C86.70667310275597 12.55538569825502, 94.01607035145423 20.56978273812863, 98.25301731070215 28.817966396600653 C102.48996426995006 37.066150055072676, 104.85224463100613 47.879879488829886, 104.46219238653792 57.24149324965372 C104.07214014206971 66.60310701047756, 100.81948763433773 77.15913062593, 95.9127038438929 84.98764896154366 C91.00592005344807 92.8161672971573, 83.05785860879806 100.13030024310434, 75.02148964386895 104.21260326333567 C66.98512067893984 108.29490628356699, 56.58856499021278 110.29944527209517, 47.69449005431828 109.48146708293157 C38.80041511842378 108.66348889376798, 28.89446849963149 104.79175132723229, 21.657040028501925 99.3047341283541 C14.41961155737236 93.8177169294759, 7.804682279042892 85.16424190846787, 4.269919227540889 76.5593638896624 C0.7351561760388861 67.95448587085691, -0.7187171503890977 56.965608304113736, 0.4484617194899059 47.67546601552125 C1.6156405893689094 38.38532372692877, 5.733832787608045 28.167596153644258, 11.27299244681491 20.8185101581075 C16.812152106021777 13.469424162570743, 26.852911335788793 7.050701735318631, 33.6834196747311 3.5809500423007137 C40.51392801367341 0.11119834928279682, 49.16060534617913 0.41400696302342627, 52.25604248046874 0 C55.351479614758354 -0.41400696302342627, 52.25604248046875 0.18281804402669266, 52.25604248046875 1.096908264160156 M52.25604248046875 0 C60.737790728152945 -0.7848836984864368, 71.37434815934485 2.9493968993881365, 79.04051063105041 7.752391298821578 C86.70667310275597 12.55538569825502, 94.01607035145423 20.56978273812863, 98.25301731070215 28.817966396600653 C102.48996426995006 37.066150055072676, 104.85224463100613 47.879879488829886, 104.46219238653792 57.24149324965372 C104.07214014206971 66.60310701047756, 100.81948763433773 77.15913062593, 95.9127038438929 84.98764896154366 C91.00592005344807 92.8161672971573, 83.05785860879806 100.13030024310434, 75.02148964386895 104.21260326333567 C66.98512067893984 108.29490628356699, 56.58856499021278 110.29944527209517, 47.69449005431828 109.48146708293157 C38.80041511842378 108.66348889376798, 28.89446849963149 104.79175132723229, 21.657040028501925 99.3047341283541 C14.41961155737236 93.8177169294759, 7.804682279042892 85.16424190846787, 4.269919227540889 76.5593638896624 C0.7351561760388861 67.95448587085691, -0.7187171503890977 56.965608304113736, 0.4484617194899059 47.67546601552125 C1.6156405893689094 38.38532372692877, 5.733832787608045 28.167596153644258, 11.27299244681491 20.8185101581075 C16.812152106021777 13.469424162570743, 26.852911335788793 7.050701735318631, 33.6834196747311 3.5809500423007137 C40.51392801367341 0.11119834928279682, 49.16060534617913 0.41400696302342627, 52.25604248046874 0 C55.351479614758354 -0.41400696302342627, 52.25604248046875 0.18281804402669266, 52.25604248046875 1.096908264160156" stroke="#000000" stroke-width="1" fill="none"></path></g><g transform="translate(247.64962768554688 252.17176818847656) rotate(0 34.5 10)"><text x="34.5" y="14" font-family="Virgil, Segoe UI Emoji" font-size="16px" fill="#000000" text-anchor="middle" style="white-space: pre;" direction="ltr">Gateway</text></g><g><g transform="translate(319.0439758300781 212.1508026123047) rotate(0 57.329803466796875 -40.434173583984375)"><path d="M0 0 C19.109934488932293 -13.478057861328125, 95.54967244466145 -67.39028930664062, 114.65960693359375 -80.86834716796875 M0 0 C19.109934488932293 -13.478057861328125, 95.54967244466145 -67.39028930664062, 114.65960693359375 -80.86834716796875" stroke="#000000" stroke-width="1" fill="none"></path></g><g transform="translate(319.0439758300781 212.1508026123047) rotate(0 57.329803466796875 -40.434173583984375)"><path d="M97.53603243210011 -56.23537746694007 C104.3320756591617 -66.01176655465578, 111.12811888622329 -75.78815564237149, 114.65960693359375 -80.86834716796875 M97.53603243210011 -56.23537746694007 C104.25101598724189 -65.89515886610326, 110.96599954238367 -75.55494026526644, 114.65960693359375 -80.86834716796875" stroke="#000000" stroke-width="1" fill="none"></path></g><g transform="translate(319.0439758300781 212.1508026123047) rotate(0 57.329803466796875 -40.434173583984375)"><path d="M85.70842012678555 -73.00521913408204 C97.1986330491308 -76.12595528724636, 108.68884597147604 -79.24669144041069, 114.65960693359375 -80.86834716796875 M85.70842012678555 -73.00521913408204 C97.06158376049983 -76.08873276816107, 108.4147473942141 -79.17224640224009, 114.65960693359375 -80.86834716796875" stroke="#000000" stroke-width="1" fill="none"></path></g></g><g><g transform="translate(546.0398864746094 109.02397155761719) rotate(0 81.59152221679688 -1.92138671875)"><path d="M0 0 C27.197174072265625 -0.6404622395833334, 135.98587036132812 -3.2023111979166665, 163.18304443359375 -3.8427734375 M0 0 C27.197174072265625 -0.6404622395833334, 135.98587036132812 -3.2023111979166665, 163.18304443359375 -3.8427734375" stroke="#000000" stroke-width="1" fill="none"></path></g><g transform="translate(546.0398864746094 109.02397155761719) rotate(0 81.59152221679688 -1.92138671875)"><path d="M135.24163762499776 7.078663535561139 C143.5275798639593 3.8399434329855078, 151.8135221029208 0.6012233304098764, 163.18304443359375 -3.8427734375 M135.24163762499776 7.078663535561139 C146.04254111711757 2.8569223916967506, 156.84344460923734 -1.364818752167638, 163.18304443359375 -3.8427734375" stroke="#000000" stroke-width="1" fill="none"></path></g><g transform="translate(546.0398864746094 109.02397155761719) rotate(0 81.59152221679688 -1.92138671875)"><path d="M134.75852064868587 -13.436857427188963 C143.1877298100255 -10.591759958801942, 151.61693897136513 -7.746662490414921, 163.18304443359375 -3.8427734375 M134.75852064868587 -13.436857427188963 C145.74617564806852 -9.728211832578365, 156.73383064745113 -6.019566237967767, 163.18304443359375 -3.8427734375" stroke="#000000" stroke-width="1" fill="none"></path></g></g><g transform="translate(461.9461975097656 97.71548461914062) rotate(0 26 10)"><text x="26" y="14" font-family="Virgil, Segoe UI Emoji" font-size="16px" fill="#000000" text-anchor="middle" style="white-space: pre;" direction="ltr">Orders</text></g><g transform="translate(729.0972595214844 93.36521911621094) rotate(0 36.5 10)"><text x="36.5" y="14" font-family="Virgil, Segoe UI Emoji" font-size="16px" fill="#000000" text-anchor="middle" style="white-space: pre;" direction="ltr">Inventory</text></g><g><g transform="translate(34.628265380859375 264.6186981201172) rotate(0 80.65814208984375 -0.38671875)"><path d="M0 0 C26.88604736328125 -0.12890625, 134.43023681640625 -0.64453125, 161.3162841796875 -0.7734375 M0 0 C26.88604736328125 -0.12890625, 134.43023681640625 -0.64453125, 161.3162841796875 -0.7734375" stroke="#000000" stroke-width="1" fill="none"></path></g><g transform="translate(34.628265380859375 264.6186981201172) rotate(0 80.65814208984375 -0.38671875)"><path d="M133.17502389011935 9.622209152073838 C142.24097203498658 6.273162502766487, 151.30692017985385 2.9241158534591367, 161.3162841796875 -0.7734375 M133.17502389011935 9.622209152073838 C143.4577922602602 5.823657648652671, 153.74056063040103 2.0251061452315042, 161.3162841796875 -0.7734375" stroke="#000000" stroke-width="1" fill="none"></path></g><g transform="translate(34.628265380859375 264.6186981201172) rotate(0 80.65814208984375 -0.38671875)"><path d="M133.07663524986663 -10.898763584648679 C142.174280138284 -7.636803022515471, 151.27192502670133 -4.374842460382263, 161.3162841796875 -0.7734375 M133.07663524986663 -10.898763584648679 C143.39535466084791 -7.198986754142511, 153.7140740718292 -3.499209923636343, 161.3162841796875 -0.7734375" stroke="#000000" stroke-width="1" fill="none"></path></g></g><g transform="translate(10 224.63926696777344) rotate(0 21.5 10)"><text x="0" y="14" font-family="Virgil, Segoe UI Emoji" font-size="16px" fill="#000000" text-anchor="start" style="white-space: pre;" direction="ltr">Client</text></g><g transform="translate(186.28958129882812 10) rotate(0 364.93621826171875 209.05431365966797)"><path d="M0 0 C283.504464310894 0, 567.008928621788 0, 729.8724365234375 0 M729.8724365234375 0 C729.8724365234375 135.62333824536094, 729.8724365234375 271.2466764907219, 729.8724365234375 418.10862731933594 M729.8724365234375 418.10862731933594 C504.7669581795635 418.10862731933594, 279.6614798356896 418.10862731933594, 0 418.10862731933594 M0 418.10862731933594 C0 265.3809475193578, 0 112.65326771937964, 0 0" stroke="#000000" stroke-width="1.5" fill="none" stroke-dasharray="12 8"></path></g><g transform="translate(832.7490539550781 391.00218200683594) rotate(0 27 10)"><text x="0" y="14" font-family="Virgil, Segoe UI Emoji" font-size="16px" fill="#000000" text-anchor="start" style="white-space: pre;" direction="ltr">System</text></g><g transform="translate(224.57675170898438 352.90745544433594) rotate(0 79.5 10)"><text x="0" y="16" font-family="Cascadia, Segoe UI Emoji" font-size="16px" fill="#000000" text-anchor="start" style="white-space: pre;" direction="ltr">@retry(attemps=3)</text></g><g transform="translate(437.3937683105469 183.7238006591797) rotate(0 79.5 10)"><text x="0" y="16" font-family="Cascadia, Segoe UI Emoji" font-size="16px" fill="#000000" text-anchor="start" style="white-space: pre;" direction="ltr">@retry(attemps=3)</text></g><g><g transform="translate(400.0606384277344 35.65476989746094) rotate(0 1.195343017578125 183.06777954101565)"><path d="M0 0 C0.3984476725260417 61.02259318033854, 1.9922383626302083 305.1129659016927, 2.39068603515625 366.13555908203125" stroke="#000000" stroke-width="1.5" fill="none" stroke-dasharray="12 8"></path></g></g><g><g transform="translate(643.3565673828125 36.98451232910156) rotate(0 1.195343017578125 183.06777954101565)"><path d="M0 0 C0.3984476725260417 61.02259318033854, 1.9922383626302083 305.1129659016927, 2.39068603515625 366.13555908203125" stroke="#000000" stroke-width="1.5" fill="none" stroke-dasharray="12 8"></path></g></g><g transform="translate(258.4515075683594 58.49705505371094) rotate(0 23.5 10)"><text x="0" y="16" font-family="Cascadia, Segoe UI Emoji" font-size="16px" fill="#000000" text-anchor="start" style="white-space: pre;" direction="ltr">Lvl 1</text></g><g transform="translate(483.9798889160156 321.77647399902344) rotate(0 23.5 10)"><text x="0" y="16" font-family="Cascadia, Segoe UI Emoji" font-size="16px" fill="#000000" text-anchor="start" style="white-space: pre;" direction="ltr">Lvl 2</text></g><g transform="translate(759.7019348144531 311.93992614746094) rotate(0 23.5 10)"><text x="0" y="16" font-family="Cascadia, Segoe UI Emoji" font-size="16px" fill="#000000" text-anchor="start" style="white-space: pre;" direction="ltr">Lvl 3</text></g></svg>